<?xml version="1.0" encoding="UTF-8"?>
<svg id="Layer_2" data-name="Layer 2" xmlns="http://www.w3.org/2000/svg" viewBox="0 0 260.82 280.15">
  <defs>
    <style>
      .cls-1 {
        fill: #000;
      }

      .cls-1, .cls-2 {
        stroke-width: 0px;
      }

      .cls-2 {
        fill: #fff;
      }
    </style>
  </defs>
  <g id="Layer_1-2" data-name="Layer 1">
    <g>
      <path class="cls-2" d="M152,279.65C68.46,279.65.5,211.69.5,128.15.5,77.66,25.22,31.13,66.84,2.82,40.79,31.05,26.5,67.57,26.5,106.15c0,84.09,68.41,152.5,152.5,152.5,24.06,0,46.3-7.15,46.52-7.22,15.27-5,25.74-11.27,31.36-14.64,1.29-.77,2.45-1.47,3.15-1.82-2.89,4.55-27.52,26.71-62.54,37.73-.9.28-22.36,6.95-45.49,6.95Z"/>
      <path class="cls-1" d="M63.54,5.76c-24.27,27.84-37.54,63.16-37.54,100.39,0,40.87,15.91,79.29,44.81,108.19s67.32,44.81,108.19,44.81c24.26,0,46.47-7.18,46.68-7.25,15.33-5.02,25.83-11.31,31.47-14.68.2-.12.4-.24.6-.36-6.65,6.99-28.62,25.37-60.4,35.36-.9.28-22.28,6.93-45.34,6.93-40.33,0-78.25-15.71-106.77-44.23C16.71,206.4,1,168.48,1,128.15c0-25.8,6.62-51.27,19.15-73.65C30.87,35.35,45.77,18.64,63.54,5.76M70.21,0C27.99,27.01,0,74.31,0,128.15c0,83.95,68.05,152,152,152,21.71,0,42.2-5.89,45.64-6.97,38.82-12.21,64.08-37.46,63.15-38.88-.03-.04-.08-.06-.15-.06-1.59,0-13.88,9.71-35.27,16.71,0,0-22.11,7.2-46.37,7.2-83.95,0-152-68.05-152-152C27,64.84,43.47,27.39,70.21,0h0Z"/>
    </g>
  </g>
</svg>