<?xml version="1.0" encoding="UTF-8"?>
<svg id="Layer_2" data-name="Layer 2" xmlns="http://www.w3.org/2000/svg" viewBox="0 0 421.52 401.02">
  <defs>
    <style>
      .cls-1, .cls-2, .cls-3, .cls-4 {
        stroke-width: 0px;
      }

      .cls-1, .cls-3 {
        fill: #141414;
      }

      .cls-2 {
        fill: #000;
      }

      .cls-3 {
        fill-rule: evenodd;
      }

      .cls-4 {
        fill: #fff;
      }
    </style>
  </defs>
  <g id="Layer_1-2" data-name="Layer 1">
    <g id="Wand_Icon_Mono" data-name="Wand Icon Mono">
      <g>
        <rect class="cls-1" x="232.73" y="38.48" width="39.75" height="417.41" transform="translate(-100.02 270.96) rotate(-48.24)"/>
        <g>
          <rect class="cls-4" x="109.82" y="93.36" width="38.69" height="87.3" transform="translate(-59.06 142.1) rotate(-48.24)"/>
          <path class="cls-2" d="M109.54,94.21l64.37,57.48-25.11,28.12-64.37-57.48,25.11-28.12M109.46,92.8l-26.44,29.61,65.86,58.81,26.44-29.61-65.86-58.81h0Z"/>
        </g>
      </g>
      <g>
        <g>
          <path class="cls-3" d="M117.41,42.29c0-4-4.06-7.79-2.48-11.19.52-1.1,1.39-2.17,2.48-3.18,1.09,1.02,1.96,2.08,2.48,3.18,1.59,3.4-2.48,7.19-2.48,11.19Z"/>
          <path class="cls-3" d="M129.66,19.87s-.02.09-.06.11c-3.29,2.05-8.79,4.76-12.2,7.93-3.4-3.18-8.91-5.89-12.2-7.93-.04-.02-.06-.07-.06-.11,0-.05.02-.09.06-.11,6.63-4.26,11.24-11.39,12.06-19.63,0-.07.06-.12.13-.12s.13.05.13.12c.83,8.24,5.44,15.37,12.06,19.63.04.02.06.07.06.11Z"/>
        </g>
        <g>
          <path class="cls-3" d="M196.13,71.33c0-1.53-1.56-2.98-.95-4.29.2-.42.53-.83.95-1.22.42.39.75.8.95,1.22.61,1.3-.95,2.76-.95,4.29Z"/>
          <path class="cls-3" d="M200.83,62.74s0,.03-.02.04c-1.26.78-3.37,1.82-4.67,3.04-1.3-1.22-3.41-2.26-4.67-3.04-.02,0-.02-.03-.02-.04,0-.02,0-.03.02-.04,2.54-1.63,4.31-4.37,4.62-7.52,0-.03.02-.05.05-.05s.05.02.05.05c.32,3.16,2.08,5.89,4.62,7.52.01,0,.02.03.02.04Z"/>
        </g>
        <g>
          <path class="cls-3" d="M16.73,165.45c0-2.3-2.33-4.48-1.42-6.43.3-.63.8-1.25,1.42-1.83.62.58,1.13,1.19,1.42,1.83.91,1.95-1.42,4.13-1.42,6.43Z"/>
          <path class="cls-3" d="M23.78,152.56s-.01.05-.04.07c-1.89,1.18-5.05,2.73-7.01,4.56-1.96-1.83-5.12-3.38-7.01-4.56-.02-.01-.04-.04-.04-.07,0-.03.01-.05.04-.07,3.81-2.45,6.46-6.55,6.93-11.28,0-.04.04-.07.08-.07s.07.03.08.07c.47,4.74,3.12,8.84,6.93,11.28.02.01.04.04.04.07Z"/>
        </g>
        <g>
          <path class="cls-3" d="M141.22,93c0-1.1-1.12-2.15-.68-3.08.14-.3.38-.6.68-.88.3.28.54.57.68.88.44.94-.68,1.98-.68,3.08Z"/>
          <path class="cls-3" d="M144.6,86.82s0,.02-.02.03c-.91.56-2.42,1.31-3.36,2.19-.94-.88-2.46-1.62-3.36-2.19-.01,0-.02-.02-.02-.03,0-.01,0-.02.02-.03,1.83-1.17,3.1-3.14,3.32-5.41,0-.02.02-.03.04-.03s.04.01.04.03c.23,2.27,1.5,4.24,3.32,5.41.01,0,.02.02.02.03Z"/>
        </g>
        <g>
          <path class="cls-3" d="M9.43,92.88c0-3.08-3.13-5.99-1.9-8.61.4-.85,1.07-1.67,1.9-2.45.84.78,1.51,1.6,1.9,2.45,1.22,2.62-1.9,5.53-1.9,8.61Z"/>
          <path class="cls-3" d="M18.86,75.63s-.02.07-.05.09c-2.53,1.57-6.76,3.66-9.38,6.1-2.62-2.44-6.85-4.53-9.38-6.1-.03-.02-.05-.05-.05-.09,0-.04.02-.07.05-.09,5.1-3.28,8.64-8.76,9.28-15.1,0-.05.05-.09.1-.09s.1.04.1.09c.64,6.34,4.18,11.83,9.28,15.1.03.02.05.05.05.09Z"/>
        </g>
        <g>
          <path class="cls-3" d="M56.47,41.24c0-2.3-2.33-4.48-1.42-6.43.3-.63.8-1.25,1.42-1.83.62.58,1.13,1.19,1.42,1.83.91,1.95-1.42,4.13-1.42,6.43Z"/>
          <path class="cls-3" d="M63.52,28.35s-.01.05-.04.07c-1.89,1.18-5.05,2.73-7.01,4.56-1.96-1.83-5.12-3.38-7.01-4.56-.02-.01-.04-.04-.04-.07,0-.03.01-.05.04-.07,3.81-2.45,6.46-6.55,6.93-11.28,0-.04.04-.07.08-.07s.07.03.08.07c.47,4.74,3.12,8.84,6.93,11.28.02.01.04.04.04.07Z"/>
        </g>
        <g>
          <path class="cls-3" d="M84.87,217.92c0-2.3-2.33-4.48-1.42-6.43.3-.63.8-1.25,1.42-1.83.62.58,1.13,1.19,1.42,1.83.91,1.95-1.42,4.13-1.42,6.43Z"/>
          <path class="cls-3" d="M91.92,205.04s-.01.05-.04.07c-1.89,1.18-5.05,2.73-7.01,4.56-1.96-1.83-5.12-3.38-7.01-4.56-.02-.01-.04-.04-.04-.07,0-.03.01-.05.04-.07,3.81-2.45,6.46-6.55,6.93-11.28,0-.04.04-.07.08-.07s.07.03.08.07c.47,4.74,3.12,8.84,6.93,11.28.02.01.04.04.04.07Z"/>
        </g>
      </g>
    </g>
  </g>
</svg>