<?xml version="1.0" encoding="UTF-8"?>
<svg id="Layer_2" data-name="Layer 2" xmlns="http://www.w3.org/2000/svg" viewBox="0 0 421.52 453.21">
  <defs>
    <style>
      .cls-1, .cls-2, .cls-3, .cls-4 {
        stroke-width: 0px;
      }

      .cls-1, .cls-3 {
        fill: #141414;
      }

      .cls-2 {
        fill: #000;
      }

      .cls-3 {
        fill-rule: evenodd;
      }

      .cls-4 {
        fill: #fff;
      }
    </style>
  </defs>
  <g id="Layer_1-2" data-name="Layer 1">
    <g id="Wand_Icon_Mono" data-name="Wand Icon Mono">
      <g>
        <rect class="cls-1" x="232.73" y="90.66" width="39.75" height="417.41" transform="translate(-138.94 288.39) rotate(-48.24)"/>
        <g>
          <rect class="cls-4" x="110.82" y="146.55" width="36.69" height="85.3" transform="translate(-97.98 159.53) rotate(-48.24)"/>
          <path class="cls-2" d="M109.7,149.22l61.38,54.81-22.44,25.13-61.38-54.81,22.44-25.13M109.46,144.98l-26.44,29.61,65.86,58.81,26.44-29.61-65.86-58.81h0Z"/>
        </g>
      </g>
      <g>
        <g>
          <path class="cls-3" d="M117.41,71.48c0-4-4.06-7.79-2.48-11.19.52-1.1,1.39-2.17,2.48-3.18,1.09,1.02,1.96,2.08,2.48,3.18,1.59,3.4-2.48,7.19-2.48,11.19Z"/>
          <path class="cls-3" d="M129.66,49.05s-.02.09-.06.11c-3.29,2.05-8.79,4.76-12.2,7.93-3.4-3.18-8.91-5.89-12.2-7.93-.04-.02-.06-.07-.06-.11,0-.05.02-.09.06-.11,6.63-4.26,11.24-11.39,12.06-19.63,0-.07.06-.12.13-.12s.13.05.13.12c.83,8.24,5.44,15.37,12.06,19.63.04.02.06.07.06.11Z"/>
        </g>
        <g>
          <path class="cls-3" d="M163.73,137.52c0-4.95-5.03-9.63-3.06-13.84.64-1.37,1.72-2.68,3.06-3.94,1.34,1.26,2.42,2.57,3.06,3.94,1.96,4.21-3.06,8.9-3.06,13.84Z"/>
          <path class="cls-3" d="M178.9,109.79c0,.06-.03.11-.08.14-4.07,2.53-10.88,5.88-15.09,9.81-4.21-3.93-11.02-7.28-15.09-9.81-.05-.03-.08-.08-.08-.14,0-.06.03-.11.08-.14,8.2-5.27,13.9-14.09,14.92-24.29,0-.09.08-.15.17-.15s.16.07.17.15c1.02,10.19,6.72,19.02,14.92,24.29.05.03.08.08.08.14Z"/>
        </g>
        <g>
          <path class="cls-3" d="M20.8,201.61c0-3.63-3.69-7.08-2.25-10.17.47-1,1.26-1.97,2.25-2.89.99.92,1.78,1.89,2.25,2.89,1.44,3.09-2.25,6.54-2.25,10.17Z"/>
          <path class="cls-3" d="M31.95,181.23s-.02.08-.06.1c-2.99,1.86-8,4.32-11.09,7.21-3.09-2.89-8.1-5.35-11.09-7.21-.04-.02-.06-.06-.06-.1,0-.04.02-.08.06-.1,6.03-3.87,10.22-10.36,10.97-17.85,0-.06.06-.11.12-.11s.12.05.12.11c.75,7.49,4.94,13.98,10.97,17.85.04.02.06.06.06.1Z"/>
        </g>
        <g>
          <path class="cls-3" d="M9.43,129.06c0-3.08-3.13-5.99-1.9-8.61.4-.85,1.07-1.67,1.9-2.45.84.78,1.51,1.6,1.9,2.45,1.22,2.62-1.9,5.53-1.9,8.61Z"/>
          <path class="cls-3" d="M18.86,111.81s-.02.07-.05.09c-2.53,1.57-6.76,3.66-9.38,6.1-2.62-2.44-6.85-4.53-9.38-6.1-.03-.02-.05-.05-.05-.09,0-.04.02-.07.05-.09,5.1-3.28,8.64-8.76,9.28-15.1,0-.05.05-.09.1-.09s.1.04.1.09c.64,6.34,4.18,11.83,9.28,15.1.03.02.05.05.05.09Z"/>
        </g>
        <g>
          <path class="cls-3" d="M43.49,58.46c0-5.53-5.62-10.77-3.42-15.47.71-1.53,1.92-3,3.42-4.4,1.5,1.4,2.71,2.87,3.42,4.4,2.19,4.7-3.42,9.94-3.42,15.47Z"/>
          <path class="cls-3" d="M60.44,27.47c0,.06-.03.12-.09.16-4.54,2.83-12.16,6.58-16.86,10.97-4.7-4.39-12.32-8.14-16.86-10.97-.05-.03-.09-.09-.09-.16,0-.06.03-.12.09-.16,9.16-5.89,15.53-15.75,16.68-27.14C43.32.07,43.4,0,43.49,0s.18.07.18.17c1.14,11.39,7.51,21.25,16.68,27.14.05.03.09.09.09.16Z"/>
        </g>
        <g>
          <path class="cls-3" d="M90.52,254.08c0-4.15-4.22-8.09-2.57-11.62.54-1.15,1.44-2.25,2.57-3.31,1.13,1.05,2.03,2.16,2.57,3.31,1.65,3.53-2.57,7.47-2.57,11.62Z"/>
          <path class="cls-3" d="M103.25,230.79s-.02.09-.07.12c-3.41,2.13-9.13,4.94-12.67,8.24-3.53-3.3-9.25-6.12-12.67-8.24-.04-.03-.07-.07-.07-.12,0-.05.02-.09.06-.12,6.88-4.42,11.67-11.83,12.53-20.39,0-.07.07-.13.14-.13s.13.06.14.13c.86,8.56,5.65,15.97,12.53,20.39.04.03.07.07.06.12Z"/>
        </g>
        <g>
          <path class="cls-3" d="M77.49,124.02c0-3.08-3.13-5.99-1.9-8.61.4-.85,1.07-1.67,1.9-2.45.84.78,1.51,1.6,1.9,2.45,1.22,2.62-1.9,5.53-1.9,8.61Z"/>
          <path class="cls-3" d="M86.92,106.78s-.02.07-.05.09c-2.53,1.57-6.76,3.66-9.38,6.1-2.62-2.44-6.85-4.53-9.38-6.1-.03-.02-.05-.05-.05-.09,0-.04.02-.07.05-.09,5.1-3.28,8.64-8.76,9.28-15.1,0-.05.05-.09.1-.09s.1.04.1.09c.64,6.34,4.18,11.83,9.28,15.1.03.02.05.05.05.09Z"/>
        </g>
      </g>
    </g>
  </g>
</svg>